PathFileType	4	(X/Y/Z)	subject01_static.trc
DataRate	CameraRate	NumFrames	NumMarkers	Units	OrigDataRate	OrigDataStartFrame	OrigNumFrames
60.00	60.00	       5	49	mm	60.00	188	       300
Frame#	Time	R.ASIS			L.ASIS			V.Sacral			R.Thigh.Upper			R.Thigh.Front			R.Thigh.Rear			L.Thigh.Upper			L.Thigh.Front			L.Thigh.Rear			R.Knee.Lat			R.Knee.Med			L.Knee.Lat			L.Knee.Med			R.Shank.Upper			R.Shank.Front			R.Shank.Rear			L.Shank.Upper			L.Shank.Front			L.Shank.Rear			R.Ankle.Lat			R.Ankle.Med			L.Ankle.Lat			L.Ankle.Med			R.Heel			R.Midfoot.Sup			R.Midfoot.Lat			R.Toe.Tip			L.Heel			L.Midfoot.Sup			L.Midfoot.Lat			L.Toe.Tip			Sternum			R.Acromium			L.Acromium			R.Bicep			L.Bicep			R.Elbow			L.Elbow			R.Wrist.Med			R.Wrist.Lat			L.Wrist.Med			L.Wrist.Lat			R.Toe.Lat			R.Toe.Med			L.Toe.Lat			L.Toe.Med			R.Temple			L.Temple			Top.Head			
		X1	Y1	Z1	X2	Y2	Z2	X3	Y3	Z3	X4	Y4	Z4	X5	Y5	Z5	X6	Y6	Z6	X7	Y7	Z7	X8	Y8	Z8	X9	Y9	Z9	X10	Y10	Z10	X11	Y11	Z11	X12	Y12	Z12	X13	Y13	Z13	X14	Y14	Z14	X15	Y15	Z15	X16	Y16	Z16	X17	Y17	Z17	X18	Y18	Z18	X19	Y19	Z19	X20	Y20	Z20	X21	Y21	Z21	X22	Y22	Z22	X23	Y23	Z23	X24	Y24	Z24	X25	Y25	Z25	X26	Y26	Z26	X27	Y27	Z27	X28	Y28	Z28	X29	Y29	Z29	X30	Y30	Z30	X31	Y31	Z31	X32	Y32	Z32	X33	Y33	Z33	X34	Y34	Z34	X35	Y35	Z35	X36	Y36	Z36	X37	Y37	Z37	X38	Y38	Z38	X39	Y39	Z39	X40	Y40	Z40	X41	Y41	Z41	X42	Y42	Z42	X43	Y43	Z43	X44	Y44	Z44	X45	Y45	Z45	X46	Y46	Z46	X47	Y47	Z47	X48	Y48	Z48	X49	Y49	Z49	

188	3.117000	604.700010	1073.008180	157.933610	606.793640	1060.964360	-104.582240	408.032620	1079.346440	36.036710	543.180660	756.646610	224.137270	593.288820	682.029360	134.069260	522.220520	636.999210	226.624860	515.777830	768.031860	-168.170470	604.668700	718.662600	-111.607830	504.785060	659.003300	-160.569610	475.687500	553.588440	217.063690	469.128140	525.381470	98.324100	476.823330	528.552800	-150.446670	498.797240	519.782170	-36.301430	441.322240	469.006260	236.227140	513.338930	424.015840	184.209290	453.002720	384.109860	253.260390	467.659270	450.336360	-170.608600	517.065800	393.217770	-127.878420	446.274080	409.620240	-181.305590	437.655730	98.107910	255.617160	443.807650	103.593440	165.099950	442.973880	93.640570	-172.212040	464.966890	108.978320	-81.788550	366.678280	70.536340	210.194640	507.373960	80.344520	164.929140	509.341460	63.742150	272.839940	657.167910	50.652440	195.336530	371.681820	75.092580	-115.690560	544.812990	77.038730	-94.775080	523.457090	65.921490	-191.905120	654.475160	48.608120	-127.407360	602.365840	1423.368530	22.484390	487.101230	1549.741940	193.040620	484.280550	1559.522090	-148.832950	523.894840	1503.124760	357.746730	529.236510	1505.946530	-326.145780	519.235840	1469.220950	460.675720	493.802800	1474.593510	-427.499970	674.397580	1463.813840	684.359070	614.975160	1471.404540	709.410520	623.610960	1440.868290	-644.474370	551.844420	1445.125000	-663.572270	600.146670	39.549710	276.711300	594.212890	48.973190	168.107910	585.345090	39.916630	-201.712390	605.851680	51.607250	-101.002910	607.323000	1654.946040	125.353940	666.128480	1644.292110	0.714190	589.556210	1814.209840	29.628350	
189	3.133000	604.411250	1072.941770	158.017530	606.796630	1061.000610	-104.577930	407.914430	1079.369140	36.057550	543.137270	756.669620	224.165220	593.261600	682.057310	134.104740	522.180050	637.011470	226.651340	515.793760	768.135070	-168.119220	604.704710	718.690860	-111.580200	504.795200	658.994020	-160.496110	475.647980	553.590450	217.061600	469.103700	525.360230	98.370790	476.828490	528.546880	-150.359920	498.831480	519.784610	-36.253550	441.339630	469.053560	236.246000	513.330200	424.016690	184.211380	453.008700	384.107880	253.260890	467.680300	450.324950	-170.612960	517.023500	393.244450	-127.849890	446.193020	409.596740	-181.277270	437.642240	98.108180	255.650990	443.785490	103.601200	165.114200	442.973880	93.640570	-172.212040	464.969300	108.988910	-81.783120	366.680630	70.570000	210.231780	507.409760	80.355370	164.935990	509.348600	63.717190	272.849880	657.167910	50.652440	195.336530	371.681640	75.142280	-115.691540	544.812990	77.038730	-94.775080	523.946960	66.166590	-191.743390	654.528440	48.694180	-127.336950	602.302920	1423.322390	22.518700	486.980870	1549.750730	193.131300	484.243040	1559.562870	-148.756990	523.988400	1503.060670	357.790740	529.181030	1505.967770	-326.090850	519.233090	1469.201900	460.674470	493.828370	1474.594120	-427.439300	674.466060	1463.581670	684.334960	615.122990	1471.150020	709.461360	623.581790	1440.885740	-644.368350	551.857910	1445.098880	-663.531920	600.184330	39.550990	276.723540	594.264280	49.075730	168.053050	585.345090	39.916630	-201.712390	605.870120	51.591610	-101.017130	607.178590	1654.954710	125.385020	665.963810	1644.385130	0.774800	589.310730	1814.278320	29.685920	
190	3.150000	604.085390	1072.886350	158.077070	606.792850	1061.032960	-104.568210	407.769440	1079.370480	36.083840	543.066220	756.714230	224.218510	593.248170	682.085210	134.167160	522.146240	637.031250	226.666400	515.824710	768.228210	-168.089070	604.735470	718.705930	-111.566210	504.810790	658.973880	-160.416890	475.606410	553.588260	217.060410	469.089050	525.334530	98.411830	476.836240	528.540950	-150.247180	498.844420	519.785340	-36.235800	441.308560	469.100100	236.255710	513.328490	424.019170	184.210070	453.033630	384.105770	253.261400	467.718050	450.314940	-170.618670	516.976200	393.260350	-127.813800	446.084170	409.557160	-181.249070	437.630920	98.109180	255.696870	443.767700	103.607220	165.117870	442.973880	93.640570	-172.212040	464.969360	108.989200	-81.782970	366.690830	70.597530	210.266620	507.396330	80.338870	164.929860	509.347960	63.705310	272.861630	657.167910	50.652440	195.336530	371.686520	75.181700	-115.626010	544.812990	77.038730	-94.775080	524.395750	66.396550	-191.593490	654.562740	48.734150	-127.297770	602.255860	1423.276980	22.551530	486.854220	1549.760990	193.211120	484.179110	1559.597780	-148.668690	524.076110	1503.014770	357.840910	529.119200	1506.011350	-326.019990	519.232670	1469.204710	460.669560	493.770080	1474.664310	-427.437350	674.520690	1463.356570	684.347780	615.219540	1470.934450	709.521300	623.496830	1440.956540	-644.219360	551.816890	1445.167970	-663.540770	600.161130	39.563350	276.730070	594.280640	49.105070	168.026790	585.345090	39.916630	-201.712390	605.897090	51.576080	-101.019210	607.008790	1654.966670	125.423930	665.842830	1644.477910	0.798320	589.102050	1814.330320	29.738640	
191	3.167000	603.773440	1072.848390	158.113460	606.775390	1061.056030	-104.556200	407.651460	1079.363530	36.101390	542.986020	756.775450	224.290210	593.249150	682.106200	134.241550	522.116270	637.055850	226.673980	515.843510	768.274540	-168.069900	604.761050	718.712710	-111.558770	504.830630	658.947270	-160.356190	475.543430	553.582820	217.059080	469.099180	525.323120	98.437120	476.859440	528.538510	-150.153780	498.845730	519.784730	-36.235230	441.218080	469.131500	236.269760	513.323670	424.010860	184.218920	453.076320	384.106900	253.261020	467.762820	450.313840	-170.626110	516.947810	393.249210	-127.791020	445.993260	409.522640	-181.233550	437.629850	98.110450	255.728470	443.737210	103.602910	165.107390	442.973880	93.640570	-172.212040	464.966220	108.975400	-81.790040	366.697600	70.612970	210.286730	507.335240	80.291950	164.910370	509.341770	63.715270	272.872220	657.167910	50.652440	195.336530	371.686250	75.224150	-115.555320	544.812990	77.038730	-94.775080	524.570560	66.497150	-191.531560	654.583860	48.736070	-127.282510	602.211850	1423.234380	22.584870	486.730040	1549.760500	193.280170	484.086000	1559.621700	-148.587540	524.143860	1502.989620	357.889530	529.065610	1506.072880	-325.942780	519.231570	1469.212400	460.664610	493.625670	1474.797610	-427.473050	674.566960	1463.170900	684.404910	615.279910	1470.785890	709.580690	623.428830	1441.064330	-644.077090	551.736630	1445.339230	-663.593140	600.073300	39.588260	276.731320	594.268070	49.098810	168.018140	585.345090	39.916630	-201.712390	605.913020	51.570530	-101.018180	606.867980	1654.981200	125.459550	665.780760	1644.558960	0.800250	588.942630	1814.366330	29.783200	
192	3.183000	603.531560	1072.828740	158.134000	606.743160	1061.076050	-104.542790	407.579130	1079.366460	36.110840	542.924620	756.836060	224.359820	593.254090	682.121150	134.304570	522.099430	637.073550	226.675130	515.842100	768.273800	-168.059660	604.766780	718.727720	-111.558670	504.848360	658.929440	-160.321620	475.456790	553.577510	217.056780	469.133510	525.332580	98.446780	476.892760	528.541560	-150.102690	498.843660	519.783020	-36.241010	441.107480	469.139800	236.300490	513.315730	423.994810	184.239750	453.124150	384.107210	253.260860	467.793730	450.322510	-170.629360	516.951480	393.237120	-127.784730	445.934020	409.517940	-181.223390	437.643100	98.111850	255.734300	443.733550	103.591170	165.097750	442.973880	93.640570	-172.212040	464.958590	108.941850	-81.807240	366.693600	70.620640	210.292740	507.278470	80.247460	164.892320	509.342010	63.730540	272.881040	657.167910	50.652440	195.336530	371.624820	75.303750	-115.568280	544.812990	77.038730	-94.775080	524.524900	66.496990	-191.539340	654.592100	48.713010	-127.286080	602.168640	1423.205570	22.615650	486.626010	1549.743530	193.341520	483.977970	1559.646480	-148.517290	524.186520	1502.979860	357.926510	529.030520	1506.140140	-325.872920	519.229000	1469.217160	460.660580	493.441930	1474.958370	-427.523800	674.603150	1463.076660	684.491880	615.292540	1470.728760	709.637210	623.432740	1441.185300	-643.982420	551.635250	1445.594120	-663.671020	599.916500	39.620140	276.720090	594.236330	49.087790	168.007890	585.345090	39.916630	-201.712390	605.908630	51.580920	-101.026850	606.783260	1654.994020	125.483490	665.746950	1644.622680	0.794900	588.827090	1814.391600	29.820880	
